<svg width="1541" height="330" viewBox="0 0 1541 330" fill="none" xmlns="http://www.w3.org/2000/svg">
<path d="M275.81 272.34L195.94 304.02C163.02 317.08 130.43 284.48 143.49 251.56L175.17 171.69C178.69 162.82 178.95 152.99 175.92 143.95L158.29 91.37L153.49 86.09C146.48 78.03 136.15 72.92 124.63 72.92C109.65 72.92 96.7 81.53 90.42 94.07L6.17999 258.21C2.24999 265.18 0 273.23 0 281.8C0 308.39 21.56 329.95 48.15 329.95H316.51C330.98 329.95 342.71 318.22 342.71 303.75C342.71 295.43 334.41 284.78 332.78 283.22L330.38 280.58L303.55 271.58C294.5 268.55 284.68 268.81 275.81 272.33V272.34Z" fill="#1D38FF"/>
<path d="M568.58 48.15C568.58 21.56 547.02 0 520.43 0H252.07C237.6 0 225.87 11.73 225.87 26.2C225.87 34.52 229.4 39.8 235.8 46.73L237.29 48.36L262.92 56.95C271.97 59.98 281.79 59.72 290.66 56.2L370.53 24.52C403.45 11.46 436.04 44.06 422.98 76.98L391.3 156.85C387.78 165.72 387.52 175.55 390.55 184.59L407.7 235.72L415.1 243.86C422.11 251.92 432.44 257.03 443.96 257.03C458.94 257.03 471.89 248.42 478.17 235.88L562.41 71.74C566.34 64.77 568.59 56.72 568.59 48.15H568.58Z" fill="#1D38FF"/>
<path d="M422.99 76.97C436.05 44.05 403.45 11.46 370.54 24.51L290.67 56.19C281.8 59.71 271.97 59.97 262.93 56.94L237.3 48.35L209 38.86C177.37 28.25 147.24 58.38 157.85 90.01L158.3 91.37L175.93 143.95C178.96 153 178.7 162.82 175.18 171.69L143.5 251.56C130.44 284.48 163.04 317.07 195.95 304.02L275.82 272.34C284.69 268.82 294.52 268.56 303.56 271.59L330.39 280.59L357.49 289.68C389.12 300.29 419.25 270.16 408.64 238.53L407.7 235.73L390.55 184.6C387.52 175.55 387.78 165.73 391.3 156.86L422.98 76.99L422.99 76.97Z" fill="#FFF050"/>
<path d="M623.44 112.76C630.42 99.22 639.89 88.8101 651.88 81.5101C663.86 74.2201 677.24 70.5701 692.03 70.5701C704.94 70.5701 716.25 73.1801 725.93 78.3801C735.62 83.5901 743.38 90.1501 749.21 98.0701V73.3801H793.27V246.5H749.21V221.19C743.59 229.32 735.82 236.03 725.93 241.35C716.03 246.66 704.63 249.32 691.71 249.32C677.13 249.32 663.84 245.57 651.87 238.07C639.89 230.57 630.41 220 623.43 206.35C616.45 192.71 612.96 177.03 612.96 159.32C612.96 141.61 616.45 126.3 623.43 112.76H623.44ZM742.97 132.61C738.8 125.01 733.18 119.17 726.1 115.11C719.02 111.05 711.41 109.02 703.29 109.02C695.17 109.02 687.67 111 680.79 114.96C673.92 118.92 668.34 124.7 664.07 132.3C659.8 139.91 657.66 148.91 657.66 159.33C657.66 169.75 659.79 178.86 664.07 186.67C668.34 194.48 673.96 200.47 680.94 204.64C687.92 208.81 695.36 210.89 703.28 210.89C711.2 210.89 719.01 208.86 726.09 204.8C733.17 200.74 738.79 194.91 742.96 187.3C747.12 179.7 749.21 170.58 749.21 159.96C749.21 149.34 747.13 140.22 742.96 132.62L742.97 132.61Z" fill="#3F3F3F"/>
<path d="M903.12 78.5501C913.01 73.2401 924.32 70.5801 937.02 70.5801C951.81 70.5801 965.19 74.2301 977.17 81.5201C989.15 88.8101 998.62 99.1801 1005.61 112.61C1012.59 126.05 1016.08 141.62 1016.08 159.33C1016.08 177.04 1012.59 192.72 1005.61 206.36C998.63 220.01 989.15 230.58 977.17 238.08C965.19 245.58 951.81 249.33 937.02 249.33C924.31 249.33 913.11 246.72 903.43 241.52C893.74 236.32 885.88 229.75 879.84 221.83V329.01H836.09V73.4001H879.84V98.4001C885.46 90.4801 893.22 83.8701 903.12 78.5601V78.5501ZM964.99 132.29C960.72 124.69 955.09 118.91 948.12 114.95C941.14 110.99 933.59 109.01 925.46 109.01C917.33 109.01 910.09 111.04 903.12 115.1C896.14 119.16 890.51 125.05 886.25 132.76C881.98 140.47 879.84 149.53 879.84 159.95C879.84 170.37 881.97 179.43 886.25 187.14C890.52 194.85 896.14 200.73 903.12 204.8C910.1 208.86 917.54 210.89 925.46 210.89C933.38 210.89 941.13 208.81 948.12 204.64C955.1 200.47 960.72 194.54 964.99 186.83C969.26 179.13 971.4 169.96 971.4 159.33C971.4 148.7 969.26 139.91 964.99 132.3V132.29Z" fill="#3F3F3F"/>
<path d="M1098.89 109.32V193.07C1098.89 198.9 1100.3 203.12 1103.11 205.73C1105.92 208.34 1110.66 209.64 1117.33 209.64H1137.64V246.51H1110.14C1073.27 246.51 1054.83 228.6 1054.83 192.76V109.33H1034.21V73.3901H1054.83V30.5801H1098.89V73.3901H1137.64V109.33H1098.89V109.32Z" fill="#3F3F3F"/>
<path d="M1172.16 45.42C1167.05 40.53 1164.5 34.43 1164.5 27.14C1164.5 19.85 1167.05 13.76 1172.16 8.86002C1177.26 3.97002 1183.67 1.52002 1191.38 1.52002C1199.09 1.52002 1205.49 3.97002 1210.6 8.86002C1215.7 13.76 1218.26 19.85 1218.26 27.14C1218.26 34.43 1215.71 40.53 1210.6 45.42C1205.49 50.32 1199.09 52.76 1191.38 52.76C1183.67 52.76 1177.26 50.31 1172.16 45.42ZM1212.94 73.39V246.51H1169.19V73.39H1212.94Z" fill="#3F3F3F"/>
<path d="M1335.43 109.32H1305.12V246.5H1260.75V109.32H1241.06V73.38H1260.75V64.63C1260.75 43.38 1266.79 27.76 1278.87 17.76C1290.95 7.76 1309.18 3.07 1333.55 3.7V40.57C1322.93 40.37 1315.53 42.13 1311.36 45.88C1307.19 49.63 1305.11 56.4 1305.11 66.19V73.38H1335.42V109.32H1335.43Z" fill="#3F3F3F"/>
<path d="M1366.83 45.42C1361.72 40.53 1359.17 34.43 1359.17 27.14C1359.17 19.85 1361.72 13.76 1366.83 8.86002C1371.93 3.97002 1378.34 1.52002 1386.05 1.52002C1393.76 1.52002 1400.16 3.97002 1405.27 8.86002C1410.37 13.76 1412.93 19.85 1412.93 27.14C1412.93 34.43 1410.38 40.53 1405.27 45.42C1400.16 50.32 1393.76 52.76 1386.05 52.76C1378.34 52.76 1371.93 50.31 1366.83 45.42ZM1407.61 73.39V246.51H1363.86V73.39H1407.61Z" fill="#3F3F3F"/>
<path d="M1501.67 109.32V193.07C1501.67 198.9 1503.08 203.12 1505.89 205.73C1508.7 208.34 1513.44 209.64 1520.11 209.64H1540.42V246.51H1512.92C1476.05 246.51 1457.61 228.6 1457.61 192.76V109.33H1436.99V73.3901H1457.61V30.5801H1501.67V73.3901H1540.42V109.33H1501.67V109.32Z" fill="#3F3F3F"/>
</svg>
